<svg width="559" height="684" viewBox="0 0 559 684" fill="none" xmlns="http://www.w3.org/2000/svg">
<path d="M506.412 683.276C506.412 683.276 489.953 676.371 478.813 668.82C467.674 661.27 440.804 658.082 433.324 650.383C425.844 642.684 407.67 631.929 395.153 628.079C382.636 624.23 276.062 534.883 276.062 534.883C258.131 520.823 236.905 502.105 213.951 501.048C190.997 499.99 44.1054 534.173 44.1054 534.173" stroke="#263238" stroke-linecap="round" stroke-linejoin="round"/>
<path d="M40.0817 316.654L199.045 306.428L213.668 310.657L213.897 501.047" stroke="#263238" stroke-linecap="round" stroke-linejoin="round"/>
<path d="M34.9507 346.706L205.688 329.904V496.273L37.8267 525.268" stroke="#263238" stroke-linecap="round" stroke-linejoin="round"/>
<path d="M213.668 310.657L34.9507 323.544" stroke="#263238" stroke-linecap="round" stroke-linejoin="round"/>
<path d="M199.045 1V306.428" stroke="#263238" stroke-linecap="round" stroke-linejoin="round"/>
<path d="M34.9507 74.5359V83.6887L114.615 82.0366" stroke="#263238" stroke-linecap="round" stroke-linejoin="round"/>
<path d="M72.5953 30.0773H34.9507V68.4396" stroke="#263238" stroke-linecap="round" stroke-linejoin="round"/>
<path d="M114.615 53.0088V30.0773H81.1423" stroke="#263238" stroke-linecap="round" stroke-linejoin="round"/>
<path d="M114.615 67.564V61.4676" stroke="#263238" stroke-linecap="round" stroke-linejoin="round"/>
<path d="M50.5189 96.4265L34.9507 96.7569V148.766" stroke="#263238" stroke-linecap="round" stroke-linejoin="round"/>
<path d="M92.9029 95.5509L55.4879 96.3274" stroke="#263238" stroke-linecap="round" stroke-linejoin="round"/>
<path d="M114.615 111.477V95.1049L101.801 95.3692" stroke="#263238" stroke-linecap="round" stroke-linejoin="round"/>
<path d="M48.7367 148.154L114.615 145.197V116.087" stroke="#263238" stroke-linecap="round" stroke-linejoin="round"/>
<path d="M139.891 30.0773H125.295V111.064" stroke="#263238" stroke-linecap="round" stroke-linejoin="round"/>
<path d="M174.619 50.8445V30.0773H146.305" stroke="#263238" stroke-linecap="round" stroke-linejoin="round"/>
<path d="M164.087 142.967L174.619 142.504V57.2052" stroke="#263238" stroke-linecap="round" stroke-linejoin="round"/>
<path d="M125.295 123.653V144.718L158.416 143.231" stroke="#263238" stroke-linecap="round" stroke-linejoin="round"/>
<path d="M519.023 7.50935V584.265L252.73 444.76V7.50935" fill="white"/>
<path d="M519.023 7.50935V584.265L252.73 444.76V7.50935" stroke="#263238" stroke-linecap="round" stroke-linejoin="round"/>
<path d="M279.735 10.8136V422.952L492.019 534.172V10.8136" fill="white"/>
<path d="M279.735 10.8136V422.952L492.019 534.172V10.8136" stroke="#263238" stroke-linecap="round" stroke-linejoin="round"/>
<path d="M505.521 7.50935V559.219L266.232 433.856V7.50935" fill="white"/>
<mask id="mask0_5_1681" style="mask-type:luminance" maskUnits="userSpaceOnUse" x="266" y="7" width="240" height="553">
<path d="M505.521 7.50935V559.219L266.232 433.856V7.50935" fill="white"/>
</mask>
<g mask="url(#mask0_5_1681)">
<path opacity="0.4" d="M505.521 7.50935V559.219L266.232 433.856V7.50935" fill="#CACED5"/>
</g>
<path d="M505.521 7.50935V559.219L266.232 433.856V7.50935" stroke="#263238" stroke-linecap="round" stroke-linejoin="round"/>
<path d="M505.521 4.20511V546.249L285.527 430.997L280.504 428.371V4.20511H505.521Z" fill="#263238"/>
<path opacity="0.5" d="M505.521 360.634V546.249L280.504 428.371V362.484H292.103V337.752H299.178V326.402L302.473 322.47V342.345H306.983L315.948 353.05V366.251L319.148 362.434V337.752H327.061V315.481H334.176V337.752H337.687V345.566H355.969V363.31H365.083V327.509H373.131V309.649H378.802V337.752H392.101V351.283L395.909 355.826V326.947H405.698V309.649H417.58V244.919H420.983V293.756L431.825 306.675V323.94H442.911V311.946H459.424V378.328H469.267V345.566H479.029V327.509L483.161 332.432V350.044H488.414V378.609H494.409V302.347H497.798V360.634H505.521Z" fill="black"/>
<path d="M505.521 403.82V546.249L285.527 430.997L280.504 428.371V404.068L280.91 403.82V376.824H284.96V426.752H289.835V416.31H293.399V355.809H309.332V392.305H326.723V372.661H338.578V416.31H357.549V390.289H370.538V416.31H394.424V390.289H409.992V414.129H417.796V393.164H422.266V401.507H427.626V356.636H435.147V337.752H440.44V381.797H449.378V353.381H454.604V414.129H470.199V455.267H480.866V439.209H488.859V455.267H492.964V403.82H505.521Z" fill="black"/>
<path d="M279.748 177.347L505.521 212.918V240.145L272.943 193.869V178.454L279.748 177.347Z" fill="white" stroke="#263238" stroke-linecap="round" stroke-linejoin="round"/>
<path d="M278.277 179.363L272.943 178.454" stroke="#263238" stroke-linecap="round" stroke-linejoin="round"/>
<path d="M287.161 180.883L284.339 180.404" stroke="#263238" stroke-linecap="round" stroke-linejoin="round"/>
<path d="M500.498 217.345L291.374 181.61" stroke="#263238" stroke-linecap="round" stroke-linejoin="round"/>
<path opacity="0.1" d="M505.521 4.20511V72.5534C497.784 80.6818 486.955 88.3146 471.765 94.0309C414.07 115.988 414.164 118.251 393.816 173.762C373.468 229.274 350.717 232.842 323.32 242.408C306.199 248.389 290.172 274.525 280.531 293.326V153.326C287.499 152.879 296.991 151.376 304.039 146.816C316.556 138.688 308.67 108.817 331.84 89.3224C355.01 69.8274 364.989 107.991 380.651 61.4676C387.484 41.1796 393.438 20.842 399.082 4.20511H505.521Z" fill="#CACED5"/>
<path d="M426.019 66.9527C427.257 66.9527 428.261 65.7248 428.261 64.2102C428.261 62.6955 427.257 61.4676 426.019 61.4676C424.781 61.4676 423.778 62.6955 423.778 64.2102C423.778 65.7248 424.781 66.9527 426.019 66.9527Z" fill="white"/>
<path opacity="0.4" d="M431.393 68.0431L450.431 64.2101L431.393 60.3772L437.064 50.6958L429.152 57.6347L426.019 34.3398L422.887 57.6347L414.974 50.6958L420.645 60.3772L401.607 64.2101L420.645 68.0431L414.974 77.7245L422.887 70.7856L426.019 94.0805L429.152 70.7856L437.064 77.7245L431.393 68.0431Z" fill="#CACED5"/>
<path opacity="0.5" d="M428.814 66.5231L440.332 64.2101L428.814 61.8807L431.083 58.0147L427.923 60.7903L426.019 46.6977L424.129 60.7903L420.956 58.0147L423.224 61.8807L411.707 64.2101L423.224 66.5231L420.956 70.4056L424.129 67.63L426.019 81.7226L427.923 67.63L431.083 70.4056L428.814 66.5231Z" fill="white"/>
<path d="M370.295 160.694C371.182 160.694 371.902 159.814 371.902 158.728C371.902 157.642 371.182 156.762 370.295 156.762C369.408 156.762 368.688 157.642 368.688 158.728C368.688 159.814 369.408 160.694 370.295 160.694Z" fill="white"/>
<path opacity="0.4" d="M374.17 161.487L387.889 158.728L374.17 155.952L378.261 148.98L372.55 153.986L370.295 137.201L368.04 153.986L362.329 148.98L366.42 155.952L352.702 158.728L366.42 161.487L362.329 168.459L368.04 163.453L370.295 180.255L372.55 163.453L378.261 168.459L374.17 161.487Z" fill="#CACED5"/>
<path opacity="0.5" d="M372.307 160.397L380.611 158.728L372.307 157.043L373.941 154.251L371.659 156.25L370.295 146.089L368.931 156.25L366.649 154.251L368.283 157.043L359.979 158.728L368.283 160.397L366.649 163.189L368.931 161.19L370.295 171.35L371.659 161.19L373.941 163.189L372.307 160.397Z" fill="white"/>
<path d="M307.55 50.8445C307.547 51.2711 307.441 51.6873 307.246 52.0406C307.05 52.394 306.774 52.6688 306.451 52.8306C306.129 52.9924 305.774 53.0338 305.432 52.9498C305.091 52.8658 304.777 52.66 304.53 52.3583C304.284 52.0566 304.115 51.6725 304.047 51.2542C303.978 50.8359 304.012 50.4021 304.144 50.0073C304.276 49.6126 304.501 49.2744 304.79 49.0353C305.079 48.7963 305.419 48.667 305.767 48.6637C306.002 48.6615 306.234 48.7164 306.451 48.8252C306.669 48.934 306.866 49.0946 307.032 49.2975C307.197 49.5005 307.329 49.7418 307.418 50.0073C307.506 50.2729 307.551 50.5575 307.55 50.8445Z" fill="white"/>
<path opacity="0.4" d="M310.048 53.8844L325.143 50.8445L310.048 47.8046L314.544 40.1222L308.265 45.6238L305.781 27.1531L303.296 45.6238L297.018 40.1222L301.514 47.8046L286.418 50.8445L301.514 53.8844L297.018 61.5668L303.296 56.0487L305.781 74.5359L308.265 56.0487L314.544 61.5668L310.048 53.8844Z" fill="#CACED5"/>
<path opacity="0.5" d="M307.995 52.6783L317.136 50.8445L307.995 48.9941L309.791 45.9212L307.293 48.135L305.781 36.9501L304.269 48.135L301.771 45.9212L303.566 48.9941L294.425 50.8445L303.566 52.6783L301.771 55.7513L304.269 53.554L305.781 64.7388L307.293 53.554L309.791 55.7513L307.995 52.6783Z" fill="white"/>
<path d="M467.606 139.002C468.583 139.002 469.375 138.033 469.375 136.837C469.375 135.642 468.583 134.673 467.606 134.673C466.63 134.673 465.838 135.642 465.838 136.837C465.838 138.033 466.63 139.002 467.606 139.002Z" fill="white"/>
<path opacity="0.4" d="M471.873 139.877L486.969 136.837L471.873 133.797L476.369 126.115L470.091 131.617L467.606 113.146L465.122 131.617L458.843 126.115L463.34 133.797L448.244 136.837L463.34 139.877L458.843 147.56L465.122 142.058L467.606 160.529L470.091 142.058L476.369 147.56L471.873 139.877Z" fill="#CACED5"/>
<path opacity="0.5" d="M469.821 138.688L478.962 136.837L469.821 134.987L471.616 131.931L469.119 134.128L467.606 122.943L466.108 134.128L463.596 131.931L465.392 134.987L456.251 136.837L465.392 138.688L463.596 141.744L466.108 139.547L467.606 150.732L469.119 139.547L471.616 141.744L469.821 138.688Z" fill="white"/>
<path d="M318.608 235.205C318.608 235.515 318.533 235.819 318.392 236.077C318.251 236.335 318.051 236.536 317.816 236.655C317.582 236.774 317.324 236.805 317.075 236.744C316.826 236.684 316.598 236.534 316.418 236.315C316.239 236.095 316.117 235.815 316.067 235.511C316.018 235.206 316.043 234.891 316.14 234.604C316.237 234.317 316.402 234.072 316.613 233.9C316.824 233.727 317.072 233.635 317.325 233.635C317.66 233.655 317.977 233.827 318.214 234.117C318.451 234.407 318.592 234.795 318.608 235.205Z" fill="white"/>
<path opacity="0.4" d="M320.417 237.419L331.341 235.205L320.417 233.007L323.671 227.456L319.121 231.438L317.325 218.056L315.53 231.438L310.979 227.456L314.233 233.007L303.31 235.205L314.233 237.419L310.979 242.97L315.53 238.988L317.325 252.37L319.121 238.988L323.671 242.97L320.417 237.419Z" fill="#CACED5"/>
<path opacity="0.5" d="M318.932 236.543L325.548 235.205L318.932 233.883L320.228 231.653L318.419 233.255L317.325 225.143L316.232 233.255L314.422 231.653L315.718 233.883L309.102 235.205L315.718 236.543L314.422 238.773L316.232 237.171L317.325 245.266L318.419 237.171L320.228 238.773L318.932 236.543Z" fill="white"/>
<path d="M327.277 122.629C327.277 122.832 327.227 123.03 327.136 123.198C327.044 123.367 326.913 123.498 326.76 123.575C326.607 123.653 326.439 123.673 326.276 123.634C326.114 123.594 325.965 123.497 325.847 123.353C325.73 123.21 325.651 123.028 325.618 122.829C325.586 122.63 325.603 122.424 325.666 122.237C325.729 122.05 325.837 121.89 325.974 121.777C326.112 121.665 326.274 121.605 326.439 121.605C326.661 121.605 326.874 121.713 327.031 121.905C327.188 122.097 327.277 122.357 327.277 122.629Z" fill="white"/>
<path opacity="0.4" d="M328.438 124.067L335.554 122.629L328.438 121.192L330.558 117.59L327.614 120.167L326.439 111.477L325.265 120.167L322.308 117.59L324.428 121.192L317.325 122.629L324.428 124.067L322.308 127.668L325.265 125.074L326.439 133.781L327.614 125.074L330.558 127.668L328.438 124.067Z" fill="#CACED5"/>
<path opacity="0.5" d="M327.479 123.488L331.773 122.629L327.479 121.754L328.33 120.316L327.142 121.357L326.439 116.087L325.724 121.357L324.549 120.316L325.4 121.754L321.093 122.629L325.4 123.488L324.549 124.942L325.724 123.901L326.439 129.172L327.142 123.901L328.33 124.942L327.479 123.488Z" fill="white"/>
<path d="M470.213 271.138C470.213 271.341 470.163 271.539 470.071 271.707C469.979 271.876 469.849 272.007 469.696 272.085C469.543 272.162 469.374 272.182 469.212 272.143C469.05 272.103 468.901 272.006 468.783 271.863C468.666 271.719 468.587 271.537 468.554 271.338C468.522 271.139 468.539 270.933 468.602 270.746C468.665 270.559 468.773 270.399 468.91 270.287C469.048 270.174 469.21 270.114 469.375 270.114C469.597 270.114 469.81 270.222 469.967 270.414C470.124 270.606 470.213 270.867 470.213 271.138Z" fill="white"/>
<path opacity="0.4" d="M471.387 272.576L478.489 271.138L471.387 269.701L473.507 266.099L470.55 268.677L469.375 259.987L468.214 268.677L465.257 266.099L467.377 269.701L460.275 271.138L467.377 272.576L465.257 276.177L468.214 273.6L469.375 282.29L470.55 273.6L473.507 276.177L471.387 272.576Z" fill="#CACED5"/>
<path opacity="0.5" d="M470.428 271.997L474.722 271.138L470.428 270.263L471.266 268.825L470.091 269.866L469.375 264.596L468.673 269.866L467.485 268.825L468.335 270.263L464.042 271.138L468.335 271.997L467.485 273.451L468.673 272.41L469.375 277.681L470.091 272.41L471.266 273.451L470.428 271.997Z" fill="white"/>
<path d="M437.712 170.755C437.712 170.958 437.663 171.156 437.571 171.325C437.479 171.493 437.348 171.624 437.195 171.702C437.042 171.779 436.874 171.8 436.712 171.76C436.549 171.721 436.4 171.623 436.283 171.48C436.166 171.336 436.086 171.154 436.054 170.955C436.022 170.757 436.038 170.551 436.102 170.363C436.165 170.176 436.272 170.016 436.41 169.904C436.548 169.791 436.71 169.731 436.875 169.731C437.097 169.731 437.31 169.839 437.467 170.031C437.624 170.223 437.712 170.484 437.712 170.755Z" fill="white"/>
<path opacity="0.4" d="M438.887 172.193L445.989 170.755L438.887 169.335L441.007 165.716L438.05 168.31L436.875 159.604L435.714 168.31L432.757 165.716L434.877 169.335L427.774 170.755L434.877 172.193L432.757 175.811L435.714 173.217L436.875 181.907L438.05 173.217L441.007 175.811L438.887 172.193Z" fill="#CACED5"/>
<path opacity="0.5" d="M437.928 171.631L442.222 170.755L437.928 169.896L438.766 168.443L437.591 169.483L436.875 164.213L436.173 169.483L434.985 168.443L435.835 169.896L431.542 170.755L435.835 171.631L434.985 173.068L436.173 172.044L436.875 177.298L437.591 172.044L438.766 173.068L437.928 171.631Z" fill="white"/>
<path d="M346.774 305.982C346.771 306.102 346.74 306.218 346.683 306.317C346.627 306.415 346.548 306.491 346.456 306.534C346.365 306.578 346.265 306.588 346.169 306.562C346.073 306.537 345.985 306.478 345.917 306.391C345.848 306.305 345.802 306.196 345.784 306.078C345.765 305.96 345.776 305.838 345.814 305.727C345.852 305.617 345.916 305.522 345.998 305.456C346.08 305.389 346.176 305.354 346.274 305.354C346.341 305.354 346.407 305.37 346.469 305.402C346.53 305.434 346.586 305.48 346.633 305.539C346.679 305.597 346.716 305.666 346.74 305.743C346.764 305.819 346.776 305.9 346.774 305.982Z" fill="white"/>
<path opacity="0.4" d="M347.49 306.841L351.77 305.982L347.49 305.106L348.759 302.925L346.977 304.495L346.274 299.241L345.572 304.495L343.79 302.925L345.059 305.106L340.779 305.982L345.059 306.841L343.79 309.021L345.572 307.452L346.274 312.706L346.977 307.452L348.759 309.021L347.49 306.841Z" fill="#CACED5"/>
<path opacity="0.5" d="M346.909 306.494L349.501 305.982L346.909 305.453L347.422 304.577L346.706 305.205L346.274 302.033L345.842 305.205L345.127 304.577L345.64 305.453L343.047 305.982L345.64 306.494L345.127 307.369L345.842 306.742L346.274 309.914L346.706 306.742L347.422 307.369L346.909 306.494Z" fill="white"/>
<path d="M387.673 259.309C388.135 259.309 388.51 258.851 388.51 258.285C388.51 257.719 388.135 257.26 387.673 257.26C387.21 257.26 386.835 257.719 386.835 258.285C386.835 258.851 387.21 259.309 387.673 259.309Z" fill="white"/>
<path opacity="0.4" d="M389.671 259.722L396.773 258.285L389.671 256.864L391.791 253.246L388.834 255.84L387.673 247.133L386.498 255.84L383.541 253.246L385.661 256.864L378.558 258.285L385.661 259.722L383.541 263.34L386.498 260.746L387.673 269.437L388.834 260.746L391.791 263.34L389.671 259.722Z" fill="#CACED5"/>
<path opacity="0.5" d="M388.712 259.16L393.019 258.285L388.712 257.426L389.563 255.972L388.375 257.013L387.673 251.759L386.957 257.013L385.782 255.972L386.633 257.426L382.326 258.285L386.633 259.16L385.782 260.598L386.957 259.557L387.673 264.827L388.375 259.557L389.563 260.598L388.712 259.16Z" fill="white"/>
<path d="M356.226 43.2613C356.226 43.4639 356.176 43.6619 356.084 43.8303C355.992 43.9988 355.862 44.1301 355.709 44.2076C355.556 44.2851 355.388 44.3054 355.225 44.2659C355.063 44.2264 354.914 44.1288 354.796 43.9856C354.679 43.8423 354.6 43.6598 354.567 43.4611C354.535 43.2624 354.552 43.0564 354.615 42.8693C354.678 42.6821 354.786 42.5221 354.923 42.4096C355.061 42.297 355.223 42.237 355.388 42.237C355.61 42.237 355.823 42.3449 355.98 42.537C356.137 42.7291 356.226 42.9896 356.226 43.2613Z" fill="white"/>
<path opacity="0.4" d="M357.387 44.6986L364.503 43.2613L357.387 41.8239L359.507 38.2223L356.55 40.8161L355.388 32.1095L354.214 40.8161L351.257 38.2223L353.377 41.8239L346.274 43.2613L353.377 44.6986L351.257 48.3002L354.214 45.7229L355.388 54.4131L356.55 45.7229L359.507 48.3002L357.387 44.6986Z" fill="#CACED5"/>
<path opacity="0.5" d="M356.428 44.1204L360.722 43.2613L356.428 42.4022L357.279 40.9483L356.091 41.9891L355.388 36.7189L354.673 41.9891L353.498 40.9483L354.349 42.4022L350.042 43.2613L354.349 44.1204L353.498 45.5742L354.673 44.5334L355.388 49.8037L356.091 44.5334L357.279 45.5742L356.428 44.1204Z" fill="white"/>
<path d="M393.843 91.4536C393.843 91.6562 393.794 91.8543 393.702 92.0227C393.61 92.1912 393.479 92.3225 393.326 92.4C393.173 92.4775 393.005 92.4978 392.843 92.4583C392.68 92.4188 392.531 92.3212 392.414 92.1779C392.297 92.0347 392.217 91.8522 392.185 91.6535C392.153 91.4548 392.169 91.2488 392.233 91.0617C392.296 90.8745 392.403 90.7145 392.541 90.602C392.679 90.4894 392.84 90.4293 393.006 90.4293C393.228 90.4293 393.441 90.5372 393.598 90.7293C393.755 90.9214 393.843 91.182 393.843 91.4536Z" fill="white"/>
<path opacity="0.4" d="M395.018 92.8909L402.12 91.4536L395.018 90.0328L397.138 86.4146L394.181 89.0085L393.02 80.3018L391.845 89.0085L388.888 86.4146L391.008 90.0328L383.906 91.4536L391.008 92.8909L388.888 96.5091L391.845 93.9153L393.02 102.605L394.181 93.9153L397.138 96.5091L395.018 92.8909Z" fill="#CACED5"/>
<path opacity="0.5" d="M394.059 92.3293L398.353 91.4536L394.059 90.5945L394.896 89.1407L393.722 90.1815L393.02 84.9278L392.304 90.1815L391.129 89.1407L391.966 90.5945L387.673 91.4536L391.966 92.3293L391.129 93.7666L392.304 92.7258L393.02 97.996L393.722 92.7258L394.896 93.7666L394.059 92.3293Z" fill="white"/>
<path d="M431.123 259.986C431.123 260.088 431.098 260.187 431.052 260.271C431.006 260.355 430.941 260.421 430.865 260.46C430.788 260.498 430.704 260.509 430.623 260.489C430.542 260.469 430.467 260.42 430.408 260.349C430.35 260.277 430.31 260.186 430.294 260.086C430.278 259.987 430.286 259.884 430.318 259.79C430.349 259.697 430.403 259.617 430.472 259.561C430.541 259.504 430.622 259.474 430.704 259.474C430.815 259.474 430.922 259.528 431 259.624C431.079 259.72 431.123 259.851 431.123 259.986Z" fill="white"/>
<path opacity="0.4" d="M431.704 260.697L435.255 259.986L431.704 259.276L432.77 257.459L431.285 258.764L430.705 254.419L430.124 258.764L428.639 257.459L429.705 259.276L426.141 259.986L429.705 260.697L428.639 262.514L430.124 261.209L430.705 265.571L431.285 261.209L432.77 262.514L431.704 260.697Z" fill="#CACED5"/>
<path opacity="0.5" d="M431.218 260.416L433.378 259.987L431.218 259.557L431.65 258.83L431.056 259.359L430.705 256.715L430.353 259.359L429.759 258.83L430.178 259.557L428.031 259.987L430.178 260.416L429.759 261.143L430.353 260.631L430.705 263.258L431.056 260.631L431.65 261.143L431.218 260.416Z" fill="white"/>
<path d="M257.969 523.549C254.944 531.413 198.343 531.678 183.112 539.691C167.881 547.703 105.69 546.663 105.69 546.663C105.69 546.663 87.6639 555.634 85.9491 550.892C85.9491 550.892 57.3511 491.085 56.379 459.877C55.4068 428.668 47.832 392.321 47.5349 387.183C47.2379 382.045 58.3368 389.579 64.1833 390.901C70.0298 392.222 119.138 366.631 137.704 366.647C156.269 366.664 203.163 362.55 217.543 371.852C225.172 376.808 233.867 403.11 240.321 428.156C246.06 450.36 250.03 471.574 249.908 475.935C249.665 485.286 261.007 515.702 257.969 523.549Z" fill="white"/>
<mask id="mask1_5_1681" style="mask-type:luminance" maskUnits="userSpaceOnUse" x="47" y="365" width="212" height="188">
<path d="M257.969 523.549C254.944 531.413 198.343 531.678 183.112 539.691C167.881 547.703 105.69 546.663 105.69 546.663C105.69 546.663 87.6639 555.634 85.9491 550.892C85.9491 550.892 57.3511 491.085 56.379 459.877C55.4068 428.668 47.832 392.321 47.5349 387.183C47.2379 382.045 58.3368 389.579 64.1833 390.901C70.0298 392.222 119.138 366.631 137.704 366.647C156.269 366.664 203.163 362.55 217.543 371.852C225.172 376.808 233.867 403.11 240.321 428.156C246.06 450.36 250.03 471.574 249.908 475.935C249.665 485.286 261.007 515.702 257.969 523.549Z" fill="white"/>
</mask>
<g mask="url(#mask1_5_1681)">
<path opacity="0.2" d="M257.969 523.549C254.945 531.413 198.343 531.678 183.112 539.691C167.881 547.703 105.69 546.662 105.69 546.662C105.69 546.662 87.6639 555.633 85.9491 550.892C85.9491 550.892 57.3511 491.085 56.379 459.877C55.4068 428.668 47.832 392.321 47.5349 387.183C53.935 386.787 60.7537 419.548 64.1833 425.182C67.6129 430.816 70.0298 445.47 74.9852 451.186C79.9406 456.903 83.9507 497.925 83.9507 497.925C83.9507 497.925 87.7044 478.826 91.026 481.255C94.3476 483.684 116.815 518.345 117.869 519.964C117.018 518.229 99.1949 481.156 123.189 431.724C147.763 381.087 196.358 414.427 200.895 418.673C205.431 422.919 197.208 481.305 200.26 481.453C203.312 481.602 226.752 467.047 233.584 447.733C236.095 440.646 238.418 433.872 240.335 428.156C246.073 450.36 250.043 471.574 249.922 475.935C249.665 485.286 261.007 515.702 257.969 523.549Z" fill="#DEE1E6"/>
</g>
<path d="M257.969 523.549C254.944 531.413 198.343 531.678 183.112 539.691C167.881 547.703 105.69 546.663 105.69 546.663C105.69 546.663 87.6639 555.634 85.9491 550.892C85.9491 550.892 57.3511 491.085 56.379 459.877C55.4068 428.668 47.832 392.321 47.5349 387.183C47.2379 382.045 58.3368 389.579 64.1833 390.901C70.0298 392.222 119.138 366.631 137.704 366.647C156.269 366.664 203.163 362.55 217.543 371.852C225.172 376.808 233.867 403.11 240.321 428.156C246.06 450.36 250.03 471.574 249.908 475.935C249.665 485.286 261.007 515.702 257.969 523.549Z" stroke="#263238" stroke-linecap="round" stroke-linejoin="round"/>
<path d="M52.6523 395.576C52.6523 395.576 60.6592 434.996 66.0061 442.992C71.3531 450.988 76.1599 472.334 77.7532 486.823C79.3464 501.312 86.8403 534.734 88.9736 538.038C90.3347 540.475 91.0769 543.348 91.107 546.299C91.107 546.299 70.4349 511.786 66.8838 484.691C63.3327 457.597 60.1326 440.084 60.1326 440.084" stroke="#263238" stroke-linecap="round" stroke-linejoin="round"/>
<path d="M66.0061 442.992C66.0061 442.992 71.8796 491.713 73.4864 491.944C75.0932 492.176 76.7405 509.292 83.9237 520.03" stroke="#263238" stroke-linecap="round" stroke-linejoin="round"/>
<path d="M147.344 402.465C147.344 402.465 113.588 438.994 118.355 486.823" stroke="#263238" stroke-linecap="round" stroke-linejoin="round"/>
<path d="M105.69 546.662C105.001 542.499 89.4867 520.509 91.107 513.851" stroke="#263238" stroke-linecap="round" stroke-linejoin="round"/>
<path d="M64.1833 390.95C64.1833 390.95 66.5327 405.72 71.8796 415.616" stroke="#263238" stroke-linecap="round" stroke-linejoin="round"/>
<path d="M233.557 464.734C233.557 464.734 210.94 504.385 196.695 507.094" stroke="#263238" stroke-linecap="round" stroke-linejoin="round"/>
<path opacity="0.2" d="M370.646 647.657C361.924 653.571 341.886 642.469 331.881 638.553C321.876 634.638 290.132 638.553 290.132 638.553L295.533 668.176C295.533 668.176 261.777 671.365 255.782 663.781C249.787 656.198 232.099 643.774 218.232 640.503C204.365 637.232 163.223 629.748 150.936 611.921C138.649 594.095 102.327 585.355 90.999 571.279C80.1971 557.98 55.4608 531.529 55.4608 531.529C55.4608 531.529 52.6658 487.037 52.6523 476.464C52.6523 464.899 55.3528 442.959 55.3528 442.959C55.3528 442.959 55.1502 461.71 58.8364 476.778C65.5876 504.236 78.9009 537.543 85.9896 550.859C91.2555 560.772 97.2911 544.548 94.6581 525.581C94.6581 525.581 105.568 516.23 108.241 496.24C110.915 476.249 111.442 438.63 113.642 411.783C115.843 384.936 137.798 366.664 137.798 366.664L171.986 365.507L280.599 567.958L337.457 606.734L370.646 647.657Z" fill="black" fill-opacity="0.7"/>
<path d="M248.058 317.1C248.058 317.1 260.427 313.168 271.741 342.791C271.741 342.791 278.385 344.972 278.385 348.887C278.385 352.803 284.501 360.122 286.256 361.757C288.012 363.393 298.719 373.008 298.719 373.008L310.871 408.413C310.871 408.413 302.675 435.012 301.609 434.649C300.542 434.285 278.425 416.162 278.425 416.162L245.371 361.84" fill="#7DB1FF"/>
<path d="M248.058 317.1C248.058 317.1 260.427 313.168 271.741 342.791C271.741 342.791 278.385 344.972 278.385 348.887C278.385 352.803 284.501 360.122 286.256 361.757C288.012 363.393 298.719 373.008 298.719 373.008L310.871 408.413C310.871 408.413 302.675 435.012 301.609 434.649C300.542 434.285 278.425 416.162 278.425 416.162L245.371 361.84" stroke="#263238" stroke-linecap="round" stroke-linejoin="round"/>
<path d="M252.366 319.265C243.859 313.961 230.897 312.755 211.467 318.389C171.892 329.954 155.81 377.766 149.005 442.662C148.181 450.443 150.22 472.648 150.22 472.648C148.407 476.017 147.415 479.948 147.358 483.981C147.721 500.799 150.142 517.456 154.541 533.396C154.541 533.396 184.246 573.295 252.46 543.656C280.248 531.595 263.586 422.671 263.154 399.921C262.614 372.182 271.782 364.434 269.905 345.566" fill="#7DB1FF"/>
<mask id="mask2_5_1681" style="mask-type:luminance" maskUnits="userSpaceOnUse" x="147" y="314" width="124" height="241">
<path d="M252.366 319.265C243.859 313.961 230.897 312.755 211.467 318.389C171.892 329.954 155.81 377.766 149.005 442.662C148.181 450.443 150.22 472.648 150.22 472.648C148.407 476.017 147.415 479.948 147.358 483.981C147.721 500.799 150.142 517.456 154.541 533.396C154.541 533.396 184.246 573.295 252.46 543.656C280.248 531.595 263.586 422.671 263.154 399.921C262.614 372.182 271.782 364.434 269.905 345.566" fill="white"/>
</mask>
<g mask="url(#mask2_5_1681)">
<path opacity="0.2" d="M263.113 399.987C263.478 418.854 275.049 497.363 262.965 530.191C255.903 536.155 248.936 542.037 242.212 547.687C181.262 569.297 154.446 533.396 154.446 533.396C150.061 517.453 147.653 500.797 147.304 483.981C147.36 479.948 148.353 476.017 150.166 472.648C150.166 472.648 148.127 450.443 148.951 442.662C155.702 377.766 171.837 329.904 211.413 318.389C230.843 312.755 243.818 313.961 252.311 319.265L263.653 336.331C257.888 350.044 247.018 337.884 247.018 337.884L234.205 349.317L222.431 343.121L215.301 353.91L205.688 343.121C205.688 343.121 189.755 343.121 182.896 343.121C176.037 343.121 166.787 372.248 166.787 372.248C156.634 387.117 155.567 429.329 157.457 442.992C159.348 456.655 162.507 458.076 162.507 458.076L152.353 469.641L154.5 501.031L174.605 469.641C174.038 469.872 160.455 475.621 164.114 469.641C167.773 463.66 180.398 454.871 180.398 454.871C180.398 454.871 170.528 431.328 174.619 431.989C178.71 432.65 192.415 428.057 192.415 428.057C192.415 428.057 168.381 412.378 168.381 408.463C168.381 404.547 180.668 408.463 180.668 408.463C173.188 401.292 174.619 381.731 174.619 381.731C174.619 381.731 196.02 356.718 211.899 360.072C220.388 361.898 228.952 363.161 237.553 363.855L264.747 363.161L269.311 359.593C267.366 370.398 262.722 380.013 263.113 399.987Z" fill="black" fill-opacity="0.7"/>
</g>
<path d="M252.366 319.265C243.859 313.961 230.897 312.755 211.467 318.389C171.892 329.954 155.81 377.766 149.005 442.662C148.181 450.443 150.22 472.648 150.22 472.648C148.407 476.017 147.415 479.948 147.358 483.981C147.721 500.799 150.142 517.456 154.541 533.396C154.541 533.396 184.246 573.295 252.46 543.656C280.248 531.595 263.586 422.671 263.154 399.921C262.614 372.182 271.782 364.434 269.905 345.566" stroke="#263238" stroke-linecap="round" stroke-linejoin="round"/>
<path d="M238.62 349.763L244.224 331.408L252.42 332.779C252.42 332.779 237.702 313.581 231.018 310.409C209.779 300.315 200.274 308.542 200.908 321.231C201.367 330.631 215.423 347.367 215.423 347.367L220.46 339.206L232.747 353.91" fill="#7DB1FF"/>
<path d="M238.62 349.763L244.224 331.408L252.42 332.779C252.42 332.779 237.702 313.581 231.018 310.409C209.779 300.315 200.274 308.542 200.908 321.231C201.367 330.631 215.423 347.367 215.423 347.367L220.46 339.206L232.747 353.91" stroke="#263238" stroke-linecap="round" stroke-linejoin="round"/>
<path d="M269.541 247.199C273.686 287.792 269.541 337.867 258.185 337.884C248.936 337.884 246.587 325.13 237.364 323.461C227.481 321.677 228.993 328.847 216.53 319.909C202.056 309.534 194.994 261.655 204.729 239.087C214.464 216.519 263.397 187.062 269.541 247.199Z" fill="#263238"/>
<path d="M245.641 363.112C245.641 363.112 242.428 362.418 241.739 362.319C241.051 362.22 233.516 365.722 232.22 365.342C230.924 364.962 230.465 367.143 232.787 368.267C235.11 369.39 243.13 368.267 243.13 368.267" fill="white"/>
<path d="M245.641 363.112C245.641 363.112 242.428 362.418 241.739 362.319C241.051 362.22 233.516 365.722 232.22 365.342C230.924 364.962 230.465 367.143 232.787 368.267C235.11 369.39 243.13 368.267 243.13 368.267" stroke="#263238" stroke-linecap="round" stroke-linejoin="round"/>
<path d="M239.025 367.325C239.025 367.325 247.667 361.361 249.611 361.361C250.176 361.359 250.734 361.516 251.242 361.82C251.75 362.124 252.195 362.566 252.541 363.112C252.541 363.112 255.485 361.46 257.186 363.112C258.887 364.764 266.138 375.172 266.138 375.172C266.138 375.172 261.034 382.772 256.403 383.119C251.771 383.466 235.785 372.694 239.025 367.325Z" fill="white" stroke="#263238" stroke-linecap="round" stroke-linejoin="round"/>
<path d="M252.541 363.112L246.6 368.068C246.6 368.068 246.06 369.572 248.126 370.299C250.61 371.141 253.999 369.208 255.782 369.836" fill="white"/>
<path d="M252.541 363.112L246.6 368.068C246.6 368.068 246.06 369.572 248.126 370.299C250.61 371.141 253.999 369.208 255.782 369.836" stroke="#263238" stroke-linecap="round" stroke-linejoin="round"/>
<path d="M320.809 387.117C320.809 387.117 324.32 396.501 325.359 399.673C326.399 402.845 326.345 411.238 325.224 411.618C324.104 411.998 324.32 417.615 324.32 417.615L328.168 416.162L328.924 419.135L333.177 415.154L333.717 417.318C333.717 417.318 338.092 411.536 339.213 408.281C340.333 405.026 339.672 391.859 338.497 387.249C336.922 382.349 335.068 377.59 332.948 373.008" fill="white"/>
<path d="M320.809 387.117C320.809 387.117 324.32 396.501 325.359 399.673C326.399 402.845 326.345 411.238 325.224 411.618C324.104 411.998 324.32 417.615 324.32 417.615L328.168 416.162L328.924 419.135L333.177 415.154L333.717 417.318C333.717 417.318 338.092 411.536 339.213 408.281C340.333 405.026 339.672 391.859 338.497 387.249C336.922 382.349 335.068 377.59 332.948 373.008" stroke="#263238" stroke-linecap="round" stroke-linejoin="round"/>
<path d="M333.177 415.154C333.177 415.154 332.475 413.022 333.974 409.024C334.7 407.385 335.134 405.576 335.248 403.717C335.362 401.857 335.153 399.99 334.635 398.236" fill="white"/>
<path d="M333.177 415.154C333.177 415.154 332.475 413.022 333.974 409.024C334.7 407.385 335.134 405.576 335.248 403.717C335.362 401.857 335.153 399.99 334.635 398.236" stroke="#263238" stroke-linecap="round" stroke-linejoin="round"/>
<path d="M328.168 416.162C327.871 412.213 329.775 409.801 330.679 407.901C331.584 406.001 330.436 400.665 330.436 400.665" fill="white"/>
<path d="M328.168 416.162C327.871 412.213 329.775 409.801 330.679 407.901C331.584 406.001 330.436 400.665 330.436 400.665" stroke="#263238" stroke-linecap="round" stroke-linejoin="round"/>
<path d="M336.445 395.427C336.445 395.427 337.214 402.317 335.473 405.01C334.448 406.485 333.888 408.36 333.893 410.296L340.32 405.01C340.32 405.01 343.993 392.602 339.442 384.259C339.442 384.259 333.731 369.803 330.895 365.904C328.06 362.005 314.031 362.484 314.247 376.527C314.247 376.527 315.786 391.908 316.056 396.452C316.326 400.995 319.634 410.561 319.634 410.561C319.634 410.561 322.335 405.951 320.755 402.201C320.321 401.003 320.108 399.702 320.131 398.391C320.154 397.08 320.414 395.792 320.89 394.618C320.89 394.618 324.779 395.989 326.764 389.827" fill="white"/>
<path d="M336.445 395.427C336.445 395.427 337.214 402.317 335.473 405.01C334.448 406.485 333.888 408.36 333.893 410.296L340.32 405.01C340.32 405.01 343.993 392.602 339.442 384.259C339.442 384.259 333.731 369.803 330.895 365.904C328.06 362.005 314.031 362.484 314.247 376.527C314.247 376.527 315.786 391.908 316.056 396.452C316.326 400.995 319.634 410.561 319.634 410.561C319.634 410.561 322.335 405.951 320.755 402.201C320.321 401.003 320.108 399.702 320.131 398.391C320.154 397.08 320.414 395.792 320.89 394.618C320.89 394.618 324.779 395.989 326.764 389.827" stroke="#263238" stroke-linecap="round" stroke-linejoin="round"/>
<path d="M331.881 366.895C331.436 366.12 330.925 365.405 330.355 364.764C325.764 359.675 320.809 362.385 305.889 363.195C287.458 364.219 279.694 362.187 273.875 363.806C264.747 366.334 261.034 372.066 258.712 373.388C250.381 378.097 223.97 369.919 223.97 369.919L222.404 391.396L239.457 406.265C239.457 406.265 264.68 414.708 268.757 414.278C274.158 413.7 288.781 402.3 296.856 396.105C304.93 389.909 317.663 380.856 321.065 381.517C324.468 382.177 326.277 376.825 326.277 376.825" fill="white"/>
<path d="M331.881 366.895C331.436 366.12 330.925 365.405 330.355 364.764C325.764 359.675 320.809 362.385 305.889 363.195C287.458 364.219 279.694 362.187 273.875 363.806C264.747 366.334 261.034 372.066 258.712 373.388C250.381 378.097 223.97 369.919 223.97 369.919L222.404 391.396L239.457 406.265C239.457 406.265 264.68 414.708 268.757 414.278C274.158 413.7 288.781 402.3 296.856 396.105C304.93 389.909 317.663 380.856 321.065 381.517C324.468 382.177 326.277 376.825 326.277 376.825" stroke="#263238" stroke-linecap="round" stroke-linejoin="round"/>
<path d="M267.434 375.866C272.471 380.344 277.291 379.897 275.765 387.58C274.239 395.262 274.496 398.021 274.496 398.021" stroke="#263238" stroke-linecap="round" stroke-linejoin="round"/>
<path d="M202.609 408.099C202.609 408.099 187.082 419.928 174.619 412.956" stroke="#263238" stroke-linecap="round" stroke-linejoin="round"/>
<path d="M251.542 306.064C251.542 306.064 249.125 308.807 246.492 312.194C243.549 315.96 240.322 320.454 239.862 322.85C239.012 327.31 234.178 349.284 234.178 349.284L219.352 328.054L218.164 300.232L230.154 277.334L246.83 299.753L251.542 306.064Z" fill="white" stroke="#263238" stroke-linecap="round" stroke-linejoin="round"/>
<path d="M251.542 306.064C251.542 306.064 249.125 308.807 246.492 312.194C237.162 308.278 233.557 300.414 233.557 300.414L246.857 299.753L251.542 306.064Z" fill="#263238"/>
<path d="M222.431 293.062C222.431 293.062 208.753 282.72 206.228 266.446C204.878 257.244 203.933 233.057 228.021 223.987C251.15 215.313 257.159 241.07 257.159 241.07C257.159 241.07 258.793 257.954 260.197 261.11C262.087 265.372 274.253 270.114 274.253 270.114C274.077 273.517 269.757 278.589 269.757 278.589L270.337 283.711L269.446 284.421C269.446 284.421 271.552 300.761 268.379 304.247C261.628 311.747 235.299 307.551 232.139 302.595" fill="white"/>
<path d="M222.431 293.062C222.431 293.062 208.753 282.72 206.228 266.446C204.878 257.244 203.933 233.057 228.021 223.987C251.15 215.313 257.159 241.07 257.159 241.07C257.159 241.07 258.793 257.954 260.197 261.11C262.087 265.372 274.253 270.114 274.253 270.114C274.077 273.517 269.757 278.589 269.757 278.589L270.337 283.711L269.446 284.421C269.446 284.421 271.552 300.761 268.379 304.247C261.628 311.747 235.299 307.551 232.139 302.595" stroke="#263238" stroke-linecap="round" stroke-linejoin="round"/>
<path d="M269.541 283.364C269.541 283.364 262.587 286.586 259.967 285.115" stroke="#263238" stroke-linecap="round" stroke-linejoin="round"/>
<path d="M252.636 247.199C252.636 247.199 246.155 248.389 244.251 255.146" stroke="#263238" stroke-linecap="round" stroke-linejoin="round"/>
<path d="M252.798 259.755C253.162 261.655 252.798 263.373 251.96 263.621C251.123 263.869 250.165 262.514 249.8 260.614C249.436 258.714 249.8 256.996 250.637 256.765C251.474 256.534 252.433 257.855 252.798 259.755Z" fill="#263238"/>
<path d="M231.626 268.115C231.626 268.115 221.796 281.332 226.671 297.242C229.236 305.618 231.302 320.553 223.687 332.812C213.452 349.333 186.798 343.501 186.663 332.994C186.488 320.752 194.765 322.172 195.561 306.56C196.358 290.947 183.409 295.838 187.46 259.656C191.51 223.475 233.368 197.52 239.997 213.397C246.288 212.162 252.724 213.988 257.928 218.485C269.959 228.877 266.151 258.88 266.151 258.88C266.151 258.88 262.843 222.731 238.188 232.446C238.148 232.396 239.444 256.187 231.626 268.115Z" fill="#263238"/>
<g opacity="0.2">
<path d="M201.057 311.285C201.382 313.293 201.903 315.245 202.609 317.1" stroke="white" stroke-linecap="round" stroke-linejoin="round"/>
<path d="M224.632 264.497C219.811 271.931 215.558 279.729 209.779 286.189C205.134 291.443 201.057 297.853 200.692 305.932" stroke="white" stroke-linecap="round" stroke-linejoin="round"/>
<path d="M233.557 217.345C233.137 231.796 230.727 246.055 226.428 259.524" stroke="white" stroke-linecap="round" stroke-linejoin="round"/>
<path d="M196.533 270.791C194.144 274.492 191.132 279.448 191.132 284.438" stroke="white" stroke-linecap="round" stroke-linejoin="round"/>
<path d="M222.404 222.203C220.703 239.583 209.901 252.8 199.652 266.347" stroke="white" stroke-linecap="round" stroke-linejoin="round"/>
<path d="M207.308 241.053C203.663 246.01 199.072 250.586 193.603 251.759" stroke="white" stroke-linecap="round" stroke-linejoin="round"/>
<path d="M213.951 230.199C212.768 232.627 211.46 234.961 210.036 237.187" stroke="white" stroke-linecap="round" stroke-linejoin="round"/>
</g>
<path d="M231.761 271.056C231.761 271.056 226.617 260.185 223.092 260.185C218.866 260.185 217.286 268.016 217.273 273.038C217.259 278.061 218.623 286.47 220.487 288.073C222.35 289.675 229.938 291.625 232.355 293.392C234.772 295.16 235.798 291.526 234.38 289.196" fill="white"/>
<path d="M231.761 271.056C231.761 271.056 226.617 260.185 223.092 260.185C218.866 260.185 217.286 268.016 217.273 273.038C217.259 278.061 218.623 286.47 220.487 288.073C222.35 289.675 229.938 291.625 232.355 293.392C234.772 295.16 235.798 291.526 234.38 289.196" stroke="#263238" stroke-linecap="round" stroke-linejoin="round"/>
<path d="M182.896 404.547C182.896 404.547 184.678 414.691 198.707 410.561C192.975 413.431 186.86 414.987 180.668 415.154C180.668 415.154 191.889 420.854 198.707 419.532C198.707 419.532 208.267 432.468 215.302 434.649C215.302 434.649 201.583 443.835 189.796 440.332C192.035 444.633 195.468 447.801 199.463 449.254C205.782 451.22 191.281 452.558 185.299 456.771C179.318 460.984 199.463 460.703 199.463 460.703C194.895 463.039 191.094 467.172 188.661 472.449C185.002 480.958 188.918 489.499 216.247 486.046C243.576 482.593 255.404 449.98 255.836 430.337C256.268 410.693 233.989 390.57 182.896 404.547Z" fill="#263238"/>
<path d="M234.205 349.317C235.987 355.149 239.97 358.75 237.58 363.806" stroke="#263238" stroke-linecap="round" stroke-linejoin="round"/>
<path d="M185.299 437.49C191.348 442.728 207.497 447.816 223.592 434.649" stroke="#263238" stroke-linecap="round" stroke-linejoin="round"/>
<path d="M187.311 346.706C202.272 348.226 207.97 355.05 211.899 360.022C215.828 364.995 248.544 368.746 248.544 368.746C258.712 364.896 258.712 373.388 258.712 373.388C254.822 375.026 251.402 378.004 248.863 381.963C246.324 385.923 244.774 390.696 244.399 395.708C242.981 411.8 253.203 413.155 253.203 413.155C253.203 413.155 248.342 422.39 244.399 418.64L236.419 418.772C236.419 418.772 218.124 418.524 202.663 408.083C202.663 408.083 174.768 416.343 171.946 378.741" fill="#7DB1FF"/>
<path d="M187.311 346.706C202.272 348.226 207.97 355.05 211.899 360.022C215.828 364.995 248.544 368.746 248.544 368.746C258.712 364.896 258.712 373.388 258.712 373.388C254.822 375.026 251.402 378.004 248.863 381.963C246.324 385.923 244.774 390.696 244.399 395.708C242.981 411.8 253.203 413.155 253.203 413.155C253.203 413.155 248.342 422.39 244.399 418.64L236.419 418.772C236.419 418.772 218.124 418.524 202.663 408.083C202.663 408.083 174.768 416.343 171.946 378.741" stroke="#263238" stroke-linecap="round" stroke-linejoin="round"/>
<path d="M244.399 418.64C244.399 418.64 238.661 419.68 236.23 406.695C233.8 393.709 242.549 380.013 242.549 380.013" stroke="#263238" stroke-linecap="round" stroke-linejoin="round"/>
<path d="M213.668 361.361C210.306 358.056 194.454 368.432 182.896 365.54" stroke="#263238" stroke-linecap="round" stroke-linejoin="round"/>
<path d="M202.609 408.099C202.609 408.099 198.626 394.37 218.232 385.548" stroke="#263238" stroke-linecap="round" stroke-linejoin="round"/>
<path d="M304.417 663.815C304.458 664.513 304.317 665.21 304.014 665.803C303.71 666.397 303.261 666.858 302.729 667.119C301.299 667.658 299.762 667.588 298.368 666.921C295.884 669.96 292.657 666.921 292.657 666.921C290.969 669.63 286.81 669.333 283.772 667.119C283.772 667.119 281.976 669.861 276.589 663.434C276.589 663.434 265.962 652.051 262.398 645.972C258.833 639.892 252.946 639.033 245.371 629.665C241.186 624.477 242.671 618.794 245.142 611.492C245.965 609.03 246.884 606.387 247.707 603.512C249.05 599.115 249.917 594.521 250.286 589.849L277.48 575.839C277.346 582.194 277.776 588.548 278.763 594.789C279.492 599.841 280.956 604.692 283.083 609.113C283.488 609.889 283.853 610.649 284.204 611.376C289.429 622.412 289.227 629.45 295.56 637.397C302.311 645.889 306.267 652.762 309.926 656.248C313.585 659.734 313.545 666.21 304.417 663.815Z" fill="white" stroke="#263238" stroke-linecap="round" stroke-linejoin="round"/>
<path d="M304.417 663.815C303.701 660.51 301.393 657.206 299.961 654.662C299.153 653.148 298.196 651.761 297.112 650.531" fill="white"/>
<path d="M304.417 663.815C303.701 660.51 301.393 657.206 299.961 654.662C299.153 653.148 298.196 651.761 297.112 650.531" stroke="#263238" stroke-linecap="round" stroke-linejoin="round"/>
<path d="M298.368 666.871C299.435 662.939 299.61 661.204 297.112 658.809C294.614 656.413 293.534 653.357 292.656 652.696" fill="white"/>
<path d="M298.368 666.871C299.435 662.939 299.61 661.204 297.112 658.809C294.614 656.413 293.534 653.357 292.656 652.696" stroke="#263238" stroke-linecap="round" stroke-linejoin="round"/>
<path d="M292.657 666.871C293.372 664.905 292.656 664.244 291.239 661.204C290.066 658.841 288.757 656.583 287.323 654.447" fill="white"/>
<path d="M292.657 666.871C293.372 664.905 292.656 664.244 291.239 661.204C290.066 658.841 288.757 656.583 287.323 654.447" stroke="#263238" stroke-linecap="round" stroke-linejoin="round"/>
<path d="M283.772 667.069C285.122 663.6 285.554 665.334 283.772 661.634C281.99 657.933 281.571 654.447 281.072 654.447" fill="white"/>
<path d="M283.772 667.069C285.122 663.6 285.554 665.334 283.772 661.634C281.99 657.933 281.571 654.447 281.072 654.447" stroke="#263238" stroke-linecap="round" stroke-linejoin="round"/>
<path d="M284.164 611.442C274.819 613.575 265.286 614.203 255.809 613.309C252.231 612.966 248.676 612.326 245.169 611.393C245.992 608.931 246.911 606.288 247.734 603.413L278.763 594.789C279.492 599.841 280.956 604.692 283.083 609.113C283.461 609.955 283.826 610.715 284.164 611.442Z" fill="#263238"/>
<path d="M365.178 632.358C366.824 634.498 368.772 636.255 370.93 637.546C376.938 641.329 375.237 646.814 370.606 647.69C367.713 648.136 364.79 647.227 362.423 645.146C362.423 645.146 356.725 645.146 350.271 637.546C343.817 629.946 333.542 621.107 327.898 621.983C322.254 622.858 313.234 621.107 314.166 606.304C315.098 591.501 307.415 566.653 307.415 566.653L335.189 560.986C336.932 571.61 339.749 581.927 343.574 591.699C346.436 598.688 362.95 614.548 367.149 619.571C371.348 624.593 374.346 629.219 374.994 632.358C375.642 635.497 379.369 641.709 374.886 643.692" fill="white"/>
<path d="M365.178 632.358C366.824 634.498 368.772 636.255 370.93 637.546C376.938 641.329 375.237 646.814 370.606 647.69C367.713 648.136 364.79 647.227 362.423 645.146C362.423 645.146 356.725 645.145 350.271 637.546C343.817 629.946 333.542 621.107 327.898 621.983C322.254 622.858 313.234 621.107 314.166 606.304C315.098 591.501 307.415 566.653 307.415 566.653L335.189 560.986C336.932 571.61 339.749 581.927 343.574 591.699C346.436 598.688 362.95 614.548 367.149 619.571C371.348 624.593 374.346 629.219 374.994 632.358C375.642 635.497 379.369 641.709 374.886 643.692" stroke="#263238" stroke-linecap="round" stroke-linejoin="round"/>
<path d="M376.155 635.943C374.035 632.391 371.902 632.061 370.295 629.616" stroke="#263238" stroke-linecap="round" stroke-linejoin="round"/>
<path d="M348.205 598.688C338.902 603.545 329.586 597.614 329.586 597.614L320.809 599.58L323.293 606.767L318.217 599.58L314.166 600.621C313.396 585.917 307.415 566.653 307.415 566.653L316.097 564.885L335.446 562.589C337.206 572.651 339.934 582.423 343.574 591.699C344.842 594.283 346.401 596.636 348.205 598.688Z" fill="#263238"/>
<path d="M348.975 582.662C348.975 582.662 331.341 595.731 323.86 595.731H308.333L307.523 581.043C307.523 581.043 295.816 542.317 294.601 533.396C293.386 524.475 288.214 507.838 288.214 507.838C288.362 516.635 287.484 525.414 285.608 533.908C283.853 541.541 280.909 549.24 276.035 554.609C262.722 569.247 220.216 578.747 208.726 563.712C206.107 560.276 205.377 552.726 206.579 542.433C210.63 507.639 236.784 441.422 286.553 396.187C301.15 382.97 317.933 387.927 322.74 398.335C327.547 408.744 328.141 481.536 330.76 486.013C333.38 490.49 334.5 526.176 334.5 526.176L340.374 566.967L344.114 567.512L348.975 582.662Z" fill="#7DB1FF"/>
<mask id="mask3_5_1681" style="mask-type:luminance" maskUnits="userSpaceOnUse" x="206" y="388" width="143" height="208">
<path d="M348.975 582.662C348.975 582.662 331.341 595.731 323.86 595.731H308.333L307.523 581.043C307.523 581.043 295.816 542.317 294.601 533.396C293.386 524.475 288.214 507.838 288.214 507.838C288.362 516.635 287.484 525.414 285.608 533.908C283.853 541.541 280.909 549.24 276.035 554.609C262.722 569.247 220.216 578.747 208.726 563.712C206.107 560.276 205.377 552.726 206.579 542.433C210.63 507.639 236.784 441.422 286.553 396.187C301.15 382.97 317.933 387.927 322.74 398.335C327.547 408.744 328.141 481.536 330.76 486.013C333.38 490.49 334.5 526.176 334.5 526.176L340.374 566.967L344.114 567.512L348.975 582.662Z" fill="white"/>
</mask>
<g mask="url(#mask3_5_1681)">
<path opacity="0.2" d="M346.45 584.43C341.333 587.999 329.572 595.731 323.82 595.731H308.333L307.523 581.043C307.523 581.043 295.816 542.318 294.601 533.396C293.386 524.475 288.214 507.838 288.214 507.838C288.362 516.635 287.484 525.414 285.608 533.908C283.853 541.541 280.91 549.24 276.035 554.609C262.722 569.247 220.216 578.747 208.726 563.713C207.455 561.824 206.65 559.532 206.404 557.104C206.396 557.044 206.396 556.982 206.404 556.922C206.309 555.898 206.201 554.857 206.107 553.816C205.965 550.011 206.132 546.198 206.606 542.433C210.657 507.64 236.811 441.423 286.581 396.187C292.308 390.812 299.375 388.017 306.591 388.274C304.404 394.634 299.151 410.627 299.435 416.244C299.786 423.299 307.415 490.986 307.536 497.661C307.658 504.335 320.822 501.13 320.822 501.13C320.822 501.13 313.329 519.304 310.129 517.932C306.929 516.561 313.41 541.26 314.26 546.332C315.111 551.404 321.011 557.534 328.141 559.301C335.27 561.069 335.31 566.224 335.31 566.224C335.31 566.224 325.589 581.225 319.58 578.962C313.572 576.698 322.942 588.445 323.307 589.32C323.523 589.833 335.945 587.619 346.45 584.43Z" fill="black" fill-opacity="0.7"/>
</g>
<path d="M348.975 582.662C348.975 582.662 331.341 595.731 323.86 595.731H308.333L307.523 581.043C307.523 581.043 295.816 542.317 294.601 533.396C293.386 524.475 288.214 507.838 288.214 507.838C288.362 516.635 287.484 525.414 285.608 533.908C283.853 541.541 280.909 549.24 276.035 554.609C262.722 569.247 220.216 578.747 208.726 563.712C206.107 560.276 205.377 552.726 206.579 542.433C210.63 507.639 236.784 441.422 286.553 396.187C301.15 382.97 317.933 387.927 322.74 398.335C327.547 408.744 328.141 481.536 330.76 486.013C333.38 490.49 334.5 526.176 334.5 526.176L340.374 566.967L344.114 567.512L348.975 582.662Z" stroke="#263238" stroke-linecap="round" stroke-linejoin="round"/>
<path d="M285.622 533.908C283.866 541.541 280.923 549.24 276.049 554.609C262.735 569.247 220.23 578.747 208.739 563.712C206.12 560.276 205.391 552.726 206.593 542.433C229.722 534.437 281.436 516.66 281.409 517.916C281.382 518.543 283.34 525.548 285.622 533.908Z" fill="#263238"/>
<path d="M254.999 398.335C267.691 387.53 282.165 385.862 291.239 402.895C300.312 419.928 292.089 500.981 292.589 504.236C293.089 507.491 289.673 521.6 289.673 521.6L281.031 587.685H284.245L286.378 601.381C286.378 601.381 248.571 613.177 244.642 611.872C240.713 610.567 244.48 595.532 244.48 595.532L248.031 533.413C248.031 533.413 235.191 575.509 204.135 576.136C171.865 576.797 144.32 532.355 164.087 500.321C183.855 468.286 196.668 469.608 196.668 469.608C196.668 469.608 241.172 410.082 254.999 398.335Z" fill="#7DB1FF"/>
<mask id="mask4_5_1681" style="mask-type:luminance" maskUnits="userSpaceOnUse" x="157" y="390" width="139" height="222">
<path d="M254.999 398.335C267.691 387.53 282.165 385.862 291.239 402.895C300.312 419.928 292.089 500.981 292.589 504.236C293.089 507.491 289.673 521.6 289.673 521.6L281.031 587.685H284.245L286.378 601.381C286.378 601.381 248.571 613.177 244.642 611.872C240.713 610.567 244.48 595.532 244.48 595.532L248.031 533.413C248.031 533.413 235.191 575.509 204.135 576.136C171.865 576.797 144.32 532.355 164.087 500.321C183.855 468.286 196.668 469.608 196.668 469.608C196.668 469.608 241.172 410.082 254.999 398.335Z" fill="white"/>
</mask>
<g mask="url(#mask4_5_1681)">
<path opacity="0.2" d="M286.405 601.397C286.405 601.397 248.598 613.193 244.669 611.888C240.74 610.583 244.507 595.549 244.507 595.549L248.058 533.429C248.058 533.429 235.218 575.525 204.162 576.153C171.892 576.814 144.347 532.372 164.114 500.337C181.951 471.458 194.116 469.69 196.331 469.641C192.631 474.101 186.771 481.635 185.34 486.079C183.193 492.688 184.408 504.253 180.668 503.873C176.928 503.493 179.061 486.856 179.061 486.856C179.061 486.856 164.114 502.121 163.75 521.732C163.385 541.343 164.641 557.6 182.896 561.019C201.151 564.439 231.153 522.095 231.153 522.095C229.333 518.676 227.821 515.026 226.644 511.208C225.01 505.541 234.975 513.504 234.975 513.504C234.975 513.504 227.494 488.095 228.925 486.79C229.533 486.228 231.005 487.897 232.477 489.995C230.935 486.97 230 483.542 229.747 479.99C229.493 476.439 229.929 472.864 231.018 469.558C236.041 454.557 235.245 448.08 241.523 448.08C247.802 448.08 244.804 453.665 246.303 462.421C247.802 471.177 256.983 504.55 255.755 504.633C254.526 504.715 249.503 507.326 251.123 512.992C252.744 518.659 251.447 536.552 258.685 544.597C265.922 552.643 251.933 563.266 251.123 572.551C250.313 581.836 247.667 592.558 252.703 588.511C257.739 584.463 267.164 579.903 276.562 589.32C276.562 589.32 255.201 599.646 255.755 601.199C256.308 602.752 270.796 603.562 277.439 601.199C280.34 600.282 283.373 600.18 286.31 600.902L286.405 601.397Z" fill="black" fill-opacity="0.7"/>
</g>
<path d="M254.999 398.335C267.691 387.53 282.165 385.862 291.239 402.895C300.312 419.928 292.089 500.981 292.589 504.236C293.089 507.491 289.673 521.6 289.673 521.6L281.031 587.685H284.245L286.378 601.381C286.378 601.381 248.571 613.177 244.642 611.872C240.713 610.567 244.48 595.532 244.48 595.532L248.031 533.413C248.031 533.413 235.191 575.509 204.135 576.136C171.865 576.797 144.32 532.355 164.087 500.321C183.855 468.286 196.668 469.608 196.668 469.608C196.668 469.608 241.172 410.082 254.999 398.335Z" stroke="#263238" stroke-linecap="round" stroke-linejoin="round"/>
<path d="M248.058 533.396C248.058 533.396 246.235 505.574 246.357 504.236C246.479 502.898 242.158 478.083 242.684 466.32C243.211 454.557 233.611 472.069 235.204 481.932C236.485 488.678 238.637 495.13 241.577 501.048" stroke="#263238" stroke-linecap="round" stroke-linejoin="round"/>
<path d="M231.018 496.273C231.018 496.273 239.754 517.205 247.073 517.916" stroke="#263238" stroke-linecap="round" stroke-linejoin="round"/>
<path d="M281.058 587.668L258.901 595.731C258.901 595.731 266.34 589.42 269.973 587.668" stroke="#263238" stroke-linecap="round" stroke-linejoin="round"/>
<path d="M329.585 481.239C329.585 481.239 327.209 503.922 323.32 509.126" stroke="#263238" stroke-linecap="round" stroke-linejoin="round"/>
<path d="M270.121 486.046C270.121 486.046 278.061 508.267 283.056 509.176" stroke="#263238" stroke-linecap="round" stroke-linejoin="round"/>
<path d="M196.695 469.591C196.695 469.591 181.559 485.171 182.99 497.578" stroke="#263238" stroke-linecap="round" stroke-linejoin="round"/>
<path d="M307.523 581.043C307.523 581.043 317.946 574.055 319.378 570.569C320.809 567.083 314.125 563.96 314.125 563.96" stroke="#263238" stroke-linecap="round" stroke-linejoin="round"/>
</svg>
